<!DOCTYPE svg PUBLIC "-//W3C//DTD SVG 1.1//EN" "http://www.w3.org/Graphics/SVG/1.1/DTD/svg11.dtd">
<!-- Uploaded to: SVG Repo, www.svgrepo.com, Transformed by: SVG Repo Mixer Tools -->
<svg fill="#c20000" width="64px" height="64px" viewBox="0 0 20.00 20.00" xmlns="http://www.w3.org/2000/svg" transform="matrix(1, 0, 0, 1, 0, 0)" stroke="#c20000" stroke-width="0.3">
<g id="SVGRepo_bgCarrier" stroke-width="0"/>
<g id="SVGRepo_tracerCarrier" stroke-linecap="round" stroke-linejoin="round"/>
<g id="SVGRepo_iconCarrier">
<path d="M18 3H8.446c-.44 0-1.071.236-1.402.525L.248 9.473a.682.682 0 0 0 0 1.053l6.796 5.947c.331.289.962.527 1.402.527H18c1.1 0 2-.9 2-2V5c0-1.1-.9-2-2-2zm-2.809 11l-2.557-2.557L10.078 14l-1.443-1.443L11.191 10 8.635 7.443 10.078 6l2.557 2.555L15.19 6l1.444 1.443L14.078 10l2.557 2.555L15.191 14z"/>
</g>
</svg>