<!DOCTYPE svg PUBLIC "-//W3C//DTD SVG 1.1//EN" "http://www.w3.org/Graphics/SVG/1.1/DTD/svg11.dtd">
<!-- Uploaded to: SVG Repo, www.svgrepo.com, Transformed by: SVG Repo Mixer Tools -->
<svg width="800px" height="800px" viewBox="-2.4 -2.4 28.80 28.80" fill="none" xmlns="http://www.w3.org/2000/svg">
<g id="SVGRepo_bgCarrier" stroke-width="0"/>
<g id="SVGRepo_tracerCarrier" stroke-linecap="round" stroke-linejoin="round"/>
<g id="SVGRepo_iconCarrier">
<path d="M12 7a2 2 0 1 0 0-4 2 2 0 0 0 0 4ZM5 14a2 2 0 1 0 0-4 2 2 0 0 0 0 4ZM12 14a2 2 0 1 0 0-4 2 2 0 0 0 0 4ZM21 12a2 2 0 1 1-4 0 2 2 0 0 1 4 0ZM7 5a2 2 0 1 1-4 0 2 2 0 0 1 4 0ZM19 7a2 2 0 1 0 0-4 2 2 0 0 0 0 4ZM14 19a2 2 0 1 1-4 0 2 2 0 0 1 4 0ZM5 21a2 2 0 1 0 0-4 2 2 0 0 0 0 4ZM21 19a2 2 0 1 1-4 0 2 2 0 0 1 4 0Z" fill="#ffffff"/>
</g>
</svg>